<svg id="svg" version="1.1" xmlns="http://www.w3.org/2000/svg" xmlns:xlink="http://www.w3.org/1999/xlink" width="400" height="266.2207357859532" viewBox="0, 0, 400,266.2207357859532">
<g id="svgg">
<path id="path0" d="M283.612 0.131 C 258.817 1.552,233.869 12.313,216.077 29.260 L 214.190 31.058 215.886 31.956 C 239.326 44.366,256.039 68.169,259.908 94.654 C 261.025 102.296,261.068 115.064,259.993 119.349 C 259.898 119.726,259.988 119.733,265.304 119.739 C 300.131 119.782,329.988 145.148,335.037 178.984 L 335.266 180.518 337.103 181.151 C 345.398 184.006,353.173 189.964,358.414 197.481 L 359.709 199.339 360.877 198.332 C 383.101 179.161,397.019 151.772,399.507 122.312 C 405.298 53.748,350.788 -3.719,283.612 0.131 " stroke="none" fill="#fcec04" fill-rule="evenodd">
</path>
<path id="path1" d="M168.078 22.258 C 136.507 25.537,110.231 44.797,97.874 73.717 C 93.945 82.912,91.194 95.116,91.163 103.488 C 91.160 104.329,91.106 105.448,91.042 105.976 L 90.927 106.935 89.181 106.708 C 57.751 102.622,25.948 118.754,10.312 146.714 C -14.154 190.463,6.944 245.655,54.276 261.725 C 64.790 265.294,78.095 266.710,88.390 265.356 C 91.215 264.984,92.849 264.978,202.007 264.978 L 312.757 264.978 314.897 265.401 C 338.072 269.973,361.144 254.006,365.492 230.387 C 367.426 219.881,364.836 206.303,359.545 199.213 C 359.144 198.674,358.187 197.372,357.419 196.318 C 352.448 189.498,344.201 183.489,336.479 181.061 C 335.166 180.648,335.153 180.626,334.738 178.022 C 329.388 144.475,298.867 119.275,264.301 119.864 L 259.801 119.941 260.037 118.117 C 264.509 83.619,247.176 49.332,216.818 32.622 C 215.557 31.928,214.412 31.261,214.273 31.141 C 213.857 30.778,209.518 28.767,207.071 27.802 C 200.475 25.202,193.366 23.415,185.758 22.444 C 182.438 22.021,171.474 21.905,168.078 22.258 " stroke="none" fill="#ececec" fill-rule="evenodd">
</path>
<path id="path2" d="M260.750 107.310 C 260.750 108.466,260.782 108.915,260.820 108.306 C 260.858 107.698,260.858 106.752,260.819 106.204 C 260.781 105.656,260.750 106.154,260.750 107.310 M264.555 119.778 C 265.164 119.816,266.110 119.816,266.658 119.778 C 267.206 119.739,266.708 119.708,265.552 119.708 C 264.396 119.709,263.947 119.740,264.555 119.778 M315.146 140.373 C 315.823 141.056,316.420 141.615,316.472 141.615 C 316.525 141.615,316.014 141.056,315.337 140.373 C 314.660 139.689,314.063 139.130,314.010 139.130 C 313.958 139.130,314.469 139.689,315.146 140.373 M353.177 191.400 C 353.534 191.768,353.869 192.069,353.921 192.069 C 353.974 192.069,353.725 191.768,353.368 191.400 C 353.012 191.032,352.677 190.731,352.624 190.731 C 352.572 190.731,352.821 191.032,353.177 191.400 " stroke="none" fill="#f4ec86" fill-rule="evenodd"></path>
<path id="path3" d="M235.738 46.823 C 236.574 47.664,237.301 48.352,237.354 48.352 C 237.406 48.352,236.765 47.664,235.929 46.823 C 235.093 45.982,234.366 45.294,234.314 45.294 C 234.261 45.294,234.902 45.982,235.738 46.823 M260.733 104.443 C 260.735 104.969,260.772 105.161,260.816 104.871 C 260.860 104.580,260.858 104.150,260.813 103.915 C 260.768 103.680,260.732 103.918,260.733 104.443 M260.731 110.081 C 260.731 110.554,260.768 110.748,260.813 110.511 C 260.859 110.275,260.859 109.888,260.813 109.651 C 260.768 109.415,260.731 109.608,260.731 110.081 M262.544 119.772 C 262.782 119.818,263.126 119.816,263.308 119.768 C 263.491 119.720,263.297 119.683,262.876 119.685 C 262.456 119.687,262.306 119.726,262.544 119.772 M267.895 119.772 C 268.133 119.818,268.477 119.816,268.660 119.768 C 268.842 119.720,268.648 119.683,268.227 119.685 C 267.807 119.687,267.657 119.726,267.895 119.772 " stroke="none" fill="#f8ec59" fill-rule="evenodd"></path>
<path id="path4" d="" stroke="none" fill="#f1ecb5" fill-rule="evenodd">
</path></g></svg>