<?xml version="1.0" encoding="UTF-8"?>
<!DOCTYPE svg PUBLIC "-//W3C//DTD SVG 1.1//EN" "http://www.w3.org/Graphics/SVG/1.1/DTD/svg11.dtd">
<!-- Creator: CorelDRAW X7 -->
<svg xmlns="http://www.w3.org/2000/svg" xml:space="preserve" width="254.794mm" height="169.598mm" version="1.1" style="shape-rendering:geometricPrecision; text-rendering:geometricPrecision; image-rendering:optimizeQuality; fill-rule:evenodd; clip-rule:evenodd"
viewBox="0 0 25479 16960"
 xmlns:xlink="http://www.w3.org/1999/xlink">
 <defs>
  <style type="text/css">
   <![CDATA[
    .fil0 {fill:#E9E9E9}
    .fil1 {fill:#FFDE17}
   ]]>
  </style>
 </defs>
 <g id="Layer_x0020_1">
  <metadata id="CorelCorpID_0Corel-Layer"/>
  <path class="fil0" d="M23052 12756c-29,-22 -116,-165 -146,-204 -55,-74 -102,-122 -154,-187l-166 -174c-266,-255 -704,-511 -1090,-625 -83,-687 -393,-1440 -762,-1952 -186,-259 -212,-270 -362,-454 -75,-93 -117,-116 -200,-201 -156,-163 -326,-303 -514,-435 -350,-246 -632,-400 -1057,-562 -577,-220 -1227,-298 -1901,-259 30,-366 68,-658 52,-1040 -48,-1126 -483,-2329 -1178,-3156 -228,-271 -460,-538 -735,-761 -257,-210 -413,-329 -710,-508 -38,-23 -313,-168 -336,-199l-609 -255c-550,-219 -1238,-317 -1837,-317 -702,0 -1342,123 -1990,383 -355,142 -677,312 -996,525 -162,108 -401,288 -546,416l-589 602c-70,84 -127,157 -193,245 -143,190 -227,326 -344,521 -110,183 -199,369 -290,573 -289,649 -442,1393 -442,2150 -133,-11 -324,-48 -462,-49 -321,-4 -475,-10 -817,23 -740,72 -1452,329 -2059,691 -74,44 -136,85 -208,133l-303 220c-603,448 -1128,1150 -1457,1817l-199 482c-583,1668 -281,3456 784,4847 47,62 100,127 155,186 142,153 155,181 334,359 129,127 423,360 567,467 880,649 2134,1009 3203,924l316 -25c57,-5 94,-12 151,-20 100,-14 10173,-5 11201,-5 302,0 2834,-10 2914,7 383,83 723,93 1102,30 422,-70 865,-267 1199,-528 35,-28 62,-49 93,-77 37,-33 56,-44 92,-79 261,-265 426,-443 599,-788 122,-244 214,-491 261,-774 89,-541 48,-991 -141,-1500 -15,-39 -31,-78 -51,-119 -46,-97 -51,-124 -113,-229 -24,-40 -48,-81 -66,-119z"/>
  <path class="fil1" d="M13793 2039c23,31 298,176 336,199 297,179 453,298 710,508 275,223 507,490 735,761 695,827 1130,2030 1178,3156 16,382 -22,674 -52,1040 674,-39 1324,39 1901,259 425,162 707,316 1057,562 188,132 358,272 514,435 83,85 125,108 200,201 150,184 176,195 362,454 369,512 679,1265 762,1952 386,114 824,370 1090,625l166 174c52,65 99,113 154,187 30,39 117,182 146,204l115 -102c116,-89 248,-228 351,-330 372,-372 625,-690 912,-1120 33,-50 56,-90 90,-141 95,-145 331,-568 399,-733 25,-60 47,-94 73,-158 103,-245 169,-398 255,-657 148,-445 283,-1023 324,-1501 12,-129 30,-283 37,-414l-13 -864c-7,-156 -20,-280 -37,-425 -69,-599 -240,-1244 -463,-1800 -42,-104 -86,-210 -136,-314 -192,-397 -313,-645 -570,-1024 -246,-361 -383,-511 -647,-826l-168 -172c-105,-131 -348,-327 -470,-443 -120,-114 -507,-398 -643,-489 -93,-62 -180,-121 -273,-177 -98,-59 -191,-109 -295,-167 -157,-87 -435,-224 -606,-294 -468,-190 -898,-329 -1405,-421 -136,-24 -245,-41 -389,-61 -234,-32 -468,-50 -700,-55l-299 0c-925,21 -1803,235 -2509,525 -658,269 -1166,600 -1706,1020 -37,29 -82,66 -118,101 -27,25 -34,26 -60,49l-244 219c-28,24 -34,37 -64,57z"/>
 </g>
</svg>
