<?xml version="1.0" encoding="UTF-8"?>
<!DOCTYPE svg PUBLIC "-//W3C//DTD SVG 1.1//EN" "http://www.w3.org/Graphics/SVG/1.1/DTD/svg11.dtd">
<!-- Creator: CorelDRAW X7 -->
<svg xmlns="http://www.w3.org/2000/svg" xml:space="preserve" width="132.292mm" height="132.292mm" version="1.1" style="shape-rendering:geometricPrecision; text-rendering:geometricPrecision; image-rendering:optimizeQuality; fill-rule:evenodd; clip-rule:evenodd"
viewBox="0 0 13229 13229"
 xmlns:xlink="http://www.w3.org/1999/xlink">
 <defs>
  <style type="text/css">
   <![CDATA[
    .fil3 {fill:#00CCFF}
    .fil2 {fill:#73C9D7}
    .fil0 {fill:#D9DBDB}
    .fil1 {fill:#FFDE17}
   ]]>
  </style>
 </defs>
 <g id="Layer_x0020_1">
  <metadata id="CorelCorpID_0Corel-Layer"/>
  <path class="fil0" d="M4590 9536c81,-42 325,-365 404,-482l114 -185 -45 312c-10,112 -18,239 -14,354l2411 0 19 -1c91,10 1627,1 1763,1 122,0 1021,-11 1093,9 187,50 430,45 605,2 246,-60 430,-165 596,-311 275,-239 426,-532 510,-899 23,-98 46,-319 33,-448 -21,-213 -74,-478 -172,-659 -15,-27 -30,-55 -42,-81 -10,-8 -132,-213 -199,-273 -20,-17 -25,-30 -43,-49 -17,-18 -31,-27 -49,-45 -19,-19 -28,-28 -47,-44 -107,-91 -304,-227 -470,-269 -50,-462 -280,-1017 -551,-1335 -16,-20 -20,-22 -33,-40 -42,-57 -36,-41 -69,-77 -227,-259 -505,-463 -851,-608 -299,-125 -637,-170 -988,-148 18,-209 36,-378 28,-595 -21,-526 -156,-1002 -383,-1437 -109,-209 -326,-522 -498,-690 -111,-108 -177,-179 -310,-279 -56,-42 -110,-82 -172,-123 -20,-13 -163,-96 -175,-114l-316 -146c-86,-38 -253,-89 -348,-111 -125,-28 -168,-33 -287,-52 -163,-25 -380,-19 -540,-11 -277,15 -718,147 -972,288 -236,131 -444,269 -642,462 -11,11 -17,20 -28,31l-60 59c-39,43 -74,82 -114,125 -132,144 -284,387 -383,567 -69,127 -168,353 -213,502 -20,64 -40,120 -57,188 -69,266 -110,527 -110,866 -80,-7 -185,-28 -278,-27 -42,0 -62,-6 -95,-8l-286 20c-35,5 -55,6 -91,11 -459,71 -915,286 -1271,605 -20,18 -35,33 -55,50 -141,121 -333,358 -440,525 -28,43 -55,87 -82,132 -395,655 -518,1588 -318,2346 32,123 64,222 103,332l132 300c63,115 81,159 156,273l276 364c19,20 32,36 51,56l107 104c533,522 1333,790 2077,668 95,-15 1493,-6 1619,-5z"/>
  <path class="fil1" d="M7055 1022c12,18 155,101 175,114 62,41 116,81 172,123 133,100 199,171 310,279 172,168 389,481 498,690 227,435 362,911 383,1437 8,217 -10,386 -28,595 351,-22 689,23 988,148 346,145 624,349 851,608 33,36 27,20 69,77 13,18 17,20 33,40 271,318 501,873 551,1335 166,42 363,178 470,269 19,16 28,25 47,44 18,18 32,27 49,45 18,19 23,32 43,49 67,60 189,265 199,273 11,-13 17,-14 30,-28l94 -91c101,-86 359,-414 448,-544 131,-192 319,-512 398,-723l107 -273c24,-65 43,-125 64,-194 117,-386 186,-807 187,-1220 0,-32 5,-56 6,-84l0 -18c0,-7 -1,-14 -2,-21l-10 -245c-11,-246 -46,-446 -91,-680 -40,-214 -150,-565 -240,-771 -156,-355 -317,-659 -553,-957 -20,-26 -32,-42 -54,-66l-259 -293c-124,-135 -438,-384 -574,-474 -51,-34 -99,-63 -153,-96 -53,-32 -99,-57 -154,-88 -28,-15 -52,-25 -78,-39 -227,-121 -561,-231 -813,-281 -70,-14 -127,-24 -202,-35l-217 -25c-998,-58 -1776,264 -2491,877l-93 85c-13,12 -19,22 -32,34l-94 91c-15,14 -18,22 -34,33z"/>
  <path class="fil2" d="M4603 12589c0,166 26,282 118,384 97,107 203,144 350,144 131,0 254,-113 317,-193 43,-53 69,-99 102,-159 121,-222 138,-375 124,-663l-8 -123c-4,-35 -5,-95 -9,-129 -5,-42 2,-87 -3,-129 -15,-117 5,-348 14,-461 7,-90 44,-268 44,-299l-197 305 -347 397c-17,14 -26,28 -42,44 -154,164 -312,276 -393,521 -37,113 -70,225 -70,361z"/>
  <path class="fil2" d="M7479 9534l-19 1c-48,101 -206,329 -280,409 -56,61 -80,107 -137,155l-293 297c-154,170 -226,253 -284,508 -23,104 -44,237 -23,370 55,345 445,502 680,290 144,-128 241,-303 298,-499 49,-166 22,-397 14,-570 -14,-308 -23,-566 29,-872 5,-32 13,-60 15,-89z"/>
  <path class="fil2" d="M4590 9536c-15,25 -172,171 -207,210 -140,156 -200,214 -267,435 -92,300 -90,676 227,802 333,132 540,-165 646,-397 84,-186 88,-275 88,-487l-21 -416c-5,-42 0,-101 -7,-148 -4,-115 4,-242 14,-354l45 -312 -114 185c-79,117 -323,440 -404,482z"/>
  <path class="fil3" d="M5061 10161c1,-226 -27,-448 -27,-688 -1,-191 24,-338 44,-518l-216 309c-58,74 -182,213 -252,279 -16,14 -20,21 -35,38l-190 188c-167,168 -262,344 -298,623 -21,163 3,373 117,479 275,255 561,106 730,-214 82,-155 126,-279 127,-496z"/>
  <path class="fil3" d="M7406 10148c0,-227 21,-337 43,-547l-35 51c-88,139 -228,323 -336,437 -29,31 -58,55 -86,86l-129 130c-48,43 -202,212 -242,269 -170,250 -278,763 -1,978 59,45 155,88 246,90 200,4 327,-160 401,-274 257,-395 139,-712 139,-1220z"/>
  <path class="fil3" d="M5601 12262c0,-187 -35,-504 -28,-682 0,-90 5,-185 13,-273 8,-88 24,-171 32,-254 -68,131 -286,407 -389,513l-301 302c-56,66 -92,98 -139,167 -159,233 -267,741 -40,943 278,248 555,101 724,-217 83,-155 128,-283 128,-499z"/>
 </g>
</svg>
