<svg id="svg" version="1.1" xmlns="http://www.w3.org/2000/svg" xmlns:xlink="http://www.w3.org/1999/xlink" width="400" height="363.4973721930244" viewBox="0, 0, 400,363.4973721930244"><g id="svgg"><path id="path0" d="M169.613 22.113 C 127.825 24.982,93.157 60.307,91.252 101.959 C 91.194 103.220,91.102 104.857,91.046 105.596 L 90.945 106.940 89.094 106.703 C 49.035 101.567,10.830 128.623,2.015 168.371 C -6.952 208.805,15.888 249.138,55.041 262.007 C 65.048 265.296,78.991 266.705,88.199 265.358 C 90.508 265.020,92.426 264.987,115.382 264.891 L 140.081 264.787 142.774 262.112 C 147.452 257.464,150.609 253.682,153.675 249.055 C 154.610 247.644,155.375 246.564,155.374 246.656 C 155.374 246.748,155.165 247.898,154.911 249.212 C 154.126 253.266,153.815 256.208,153.707 260.631 L 153.603 264.883 232.863 264.883 C 310.748 264.883,312.155 264.889,313.969 265.256 C 344.682 271.472,371.471 244.443,365.293 213.473 C 364.344 208.715,361.657 202.091,359.447 199.063 C 355.612 193.808,353.605 191.541,350.409 188.856 C 346.807 185.830,341.429 182.747,337.315 181.351 C 335.036 180.577,335.244 180.832,334.812 178.283 C 329.092 144.499,299.945 119.924,265.600 119.924 C 260.437 119.924,259.914 119.894,259.914 119.607 C 259.914 119.433,260.060 118.143,260.238 116.741 C 261.200 109.184,260.558 97.174,258.749 88.868 C 253.500 64.771,236.604 42.495,215.543 31.902 C 214.878 31.567,214.290 31.229,214.238 31.151 C 214.076 30.909,211.192 29.519,208.516 28.392 C 196.854 23.483,182.770 21.209,169.613 22.113 " stroke="none" fill="#dbdbdb" fill-rule="evenodd"></path><path id="path1" d="M152.807 251.130 C 148.940 256.650,145.438 260.402,136.646 268.446 C 129.413 275.064,127.679 277.326,125.971 282.376 C 122.557 292.468,124.347 300.190,130.858 303.461 C 138.780 307.441,146.128 303.824,151.363 293.367 C 153.895 288.308,154.311 284.621,153.539 274.056 C 152.918 265.539,153.100 257.501,154.050 251.525 C 154.519 248.580,154.580 248.599,152.807 251.130 M224.893 268.277 C 221.498 273.287,216.948 278.259,209.747 284.827 C 200.999 292.805,199.345 294.922,197.532 300.462 C 193.698 312.172,197.083 320.536,206.464 322.536 C 212.772 323.880,219.110 319.355,223.318 310.501 C 225.676 305.541,226.032 302.332,225.315 292.499 C 224.571 282.277,224.791 274.208,225.988 267.845 C 226.127 267.109,226.221 266.487,226.197 266.461 C 226.173 266.436,225.586 267.253,224.893 268.277 M131.761 272.193 L 131.199 272.814 131.820 272.253 C 132.162 271.944,132.441 271.665,132.441 271.632 C 132.441 271.484,132.284 271.614,131.761 272.193 M169.802 307.929 C 166.126 313.470,161.525 318.450,152.413 326.753 C 145.827 332.754,144.134 334.935,142.529 339.484 C 138.777 350.121,140.530 357.996,147.399 361.365 C 154.180 364.692,160.610 362.356,165.584 354.759 C 169.937 348.112,170.785 343.668,169.900 332.155 C 169.288 324.206,169.534 314.158,170.475 308.648 C 170.663 307.544,170.796 306.619,170.770 306.591 C 170.744 306.564,170.309 307.166,169.802 307.929 " stroke="none" fill="#05ccfb" fill-rule="evenodd"></path><path id="path2" d="M282.465 0.203 C 257.103 2.208,233.347 12.678,215.688 29.634 L 214.177 31.086 216.220 32.168 C 238.725 44.079,255.376 67.379,259.609 92.881 C 260.994 101.230,261.178 113.556,260.001 119.263 L 259.901 119.749 265.115 119.749 C 299.938 119.743,329.281 144.441,334.952 178.529 L 335.290 180.565 336.064 180.793 C 344.450 183.262,353.475 190.112,358.727 197.993 C 359.182 198.677,359.579 199.269,359.608 199.309 C 359.881 199.679,368.884 190.890,372.311 186.908 C 419.634 131.928,404.262 46.786,340.850 12.649 C 323.552 3.337,301.714 -1.319,282.465 0.203 " stroke="none" fill="#fbeb04" fill-rule="evenodd"></path><path id="path3" d="M154.068 248.468 C 150.772 253.623,142.569 263.049,139.770 264.898 C 139.050 265.373,133.956 270.095,131.723 272.355 C 122.474 281.721,120.855 296.865,128.485 302.647 C 136.664 308.846,145.999 305.294,151.721 293.807 C 154.463 288.302,154.887 284.867,154.102 274.517 C 153.357 264.703,153.647 255.747,154.922 249.143 C 155.503 246.134,155.542 246.164,154.068 248.468 M154.050 251.525 C 153.100 257.501,152.918 265.539,153.539 274.056 C 154.311 284.621,153.895 288.308,151.363 293.367 C 146.128 303.824,138.780 307.441,130.858 303.461 C 124.347 300.190,122.557 292.468,125.971 282.376 C 127.679 277.326,129.413 275.064,136.646 268.446 C 145.438 260.402,148.940 256.650,152.807 251.130 C 154.580 248.599,154.519 248.580,154.050 251.525 M225.407 266.533 C 222.350 271.127,219.684 274.347,215.292 278.750 C 212.023 282.028,211.157 282.847,207.643 285.986 C 200.395 292.460,198.047 295.893,196.394 302.437 C 193.736 312.959,196.722 320.097,204.873 322.701 C 212.613 325.173,220.275 319.809,224.647 308.858 C 226.211 304.942,226.492 300.828,225.829 291.543 C 225.059 280.766,225.304 274.152,226.746 266.699 C 227.106 264.841,227.106 264.883,226.773 264.883 C 226.625 264.883,226.010 265.625,225.407 266.533 M225.988 267.845 C 224.791 274.208,224.571 282.277,225.315 292.499 C 226.032 302.332,225.676 305.541,223.318 310.501 C 219.110 319.355,212.772 323.880,206.464 322.536 C 197.083 320.536,193.698 312.172,197.532 300.462 C 199.345 294.922,200.999 292.805,209.747 284.827 C 216.948 278.259,221.498 273.287,224.893 268.277 C 225.586 267.253,226.173 266.436,226.197 266.461 C 226.221 266.487,226.127 267.109,225.988 267.845 M169.840 306.869 C 165.572 313.277,161.786 317.427,152.471 325.905 C 145.372 332.366,143.443 334.900,141.746 339.990 C 137.755 351.966,141.053 360.819,150.331 363.041 C 157.895 364.853,164.547 359.905,169.286 348.944 C 170.707 345.657,171.098 340.468,170.502 332.824 C 169.640 321.784,169.913 314.044,171.428 306.546 C 171.715 305.127,171.927 303.939,171.901 303.906 C 171.874 303.874,170.946 305.207,169.840 306.869 M170.475 308.648 C 169.534 314.158,169.288 324.206,169.900 332.155 C 170.785 343.668,169.937 348.112,165.584 354.759 C 160.610 362.356,154.180 364.692,147.399 361.365 C 140.530 357.996,138.777 350.121,142.529 339.484 C 144.134 334.935,145.827 332.754,152.413 326.753 C 161.525 318.450,166.126 313.470,169.802 307.929 C 170.309 307.166,170.744 306.564,170.770 306.591 C 170.796 306.619,170.663 307.544,170.475 308.648 " stroke="none" fill="#74cbd4" fill-rule="evenodd"></path><path id="path4" d="M232.203 43.443 C 232.203 43.475,232.482 43.755,232.824 44.064 L 233.445 44.625 232.883 44.004 C 232.360 43.425,232.203 43.295,232.203 43.443 M235.738 46.823 C 236.149 47.243,236.528 47.587,236.580 47.587 C 236.633 47.587,236.340 47.243,235.929 46.823 C 235.519 46.402,235.140 46.058,235.087 46.058 C 235.035 46.058,235.328 46.402,235.738 46.823 M260.536 101.386 C 260.538 101.806,260.577 101.956,260.623 101.718 C 260.668 101.480,260.666 101.136,260.619 100.953 C 260.571 100.771,260.533 100.965,260.536 101.386 M260.756 107.215 C 260.756 108.949,260.785 109.658,260.821 108.791 C 260.856 107.924,260.856 106.505,260.821 105.638 C 260.785 104.771,260.756 105.480,260.756 107.215 M260.539 113.139 C 260.539 113.612,260.577 113.806,260.622 113.569 C 260.668 113.333,260.668 112.946,260.622 112.709 C 260.577 112.473,260.539 112.666,260.539 113.139 M264.175 119.779 C 264.994 119.815,266.284 119.815,267.042 119.779 C 267.799 119.742,267.129 119.713,265.552 119.713 C 263.975 119.714,263.356 119.743,264.175 119.779 M270.571 119.963 C 270.809 120.009,271.153 120.007,271.335 119.959 C 271.518 119.911,271.323 119.874,270.903 119.876 C 270.483 119.878,270.333 119.917,270.571 119.963 M315.050 140.277 C 315.992 141.223,316.805 141.997,316.858 141.997 C 316.910 141.997,316.183 141.223,315.241 140.277 C 314.300 139.331,313.486 138.557,313.434 138.557 C 313.381 138.557,314.109 139.331,315.050 140.277 M353.177 191.400 C 353.854 192.083,354.451 192.642,354.504 192.642 C 354.557 192.642,354.046 192.083,353.368 191.400 C 352.691 190.717,352.094 190.158,352.042 190.158 C 351.989 190.158,352.500 190.717,353.177 191.400 " stroke="none" fill="#e9e481" fill-rule="evenodd"></path></g></svg>