<?xml version="1.0" encoding="UTF-8"?>
<!DOCTYPE svg PUBLIC "-//W3C//DTD SVG 1.1//EN" "http://www.w3.org/Graphics/SVG/1.1/DTD/svg11.dtd">
<!-- Creator: CorelDRAW X7 -->
<svg xmlns="http://www.w3.org/2000/svg" xml:space="preserve" width="132.292mm" height="99.4832mm" version="1.1" style="shape-rendering:geometricPrecision; text-rendering:geometricPrecision; image-rendering:optimizeQuality; fill-rule:evenodd; clip-rule:evenodd"
viewBox="0 0 13229 9948"
 xmlns:xlink="http://www.w3.org/1999/xlink">
 <defs>
  <style type="text/css">
   <![CDATA[
    .fil0 {fill:#12BCFF}
   ]]>
  </style>
 </defs>
 <g id="Layer_x0020_1">
  <metadata id="CorelCorpID_0Corel-Layer"/>
  <g id="_361708672">
   <path class="fil0" d="M-72 4749c0,206 12,333 205,449 28,17 43,24 73,36 51,20 117,32 188,32l8543 0c113,0 95,-82 163,-217 129,-256 432,-436 729,-436 222,0 461,61 613,215 33,34 66,60 95,99 80,107 93,139 135,253 22,56 32,86 108,86l1927 0c72,0 138,-11 188,-31 162,-65 277,-224 277,-388l0 -66c0,-186 -142,-335 -304,-393 -53,-19 -137,-33 -207,-33l-9829 0c-65,0 -84,42 -106,88 -22,47 -33,94 -56,138 -33,67 -113,175 -169,219 -19,15 -30,29 -51,45 -21,17 -33,26 -56,41 -238,159 -545,183 -812,78 -52,-20 -79,-37 -125,-62 -42,-23 -73,-49 -110,-78 -59,-46 -133,-136 -173,-202 -48,-81 -83,-165 -107,-267 -309,0 -862,-84 -1066,189 -34,46 -73,127 -73,205z"/>
   <path class="fil0" d="M1791 9250l5018 0c9,-108 109,-281 180,-370 22,-27 66,-69 93,-94 14,-13 37,-31 50,-41 53,-37 116,-75 178,-100 226,-95 453,-89 679,1 91,36 163,84 232,143 38,32 61,56 96,91l83 105c73,127 32,214 130,244 175,53 1169,21 1467,21l1125 0c349,2 579,-283 490,-593 -51,-176 -208,-319 -431,-319l-8601 0c-31,0 -19,52 -19,84 -2,184 -94,394 -222,522 -20,21 -30,32 -54,50 -109,85 -214,141 -349,187 -28,9 -49,18 -76,28 -23,9 -60,17 -69,41z"/>
   <path class="fil0" d="M4643 7258l6505 0c70,0 149,-12 199,-34 33,-15 46,-21 77,-40l69 -53c136,-131 189,-338 104,-515 -73,-151 -230,-270 -423,-270l-6589 0c-116,0 -223,41 -306,109 -14,11 -24,17 -36,29l-52 64c-94,139 -96,325 -25,469 87,174 261,241 477,241z"/>
   <path class="fil0" d="M1481 3275l4449 0c71,0 122,-19 168,-46 19,-11 43,-27 60,-43l30 -28c1,-1 2,-3 3,-4 364,-364 -21,-765 -242,-765l-4540 0c-122,0 -223,85 -279,154 -53,66 -129,203 -111,320 38,244 200,412 462,412z"/>
   <path class="fil0" d="M5542 1309c810,0 1621,0 2431,0 148,0 343,11 485,-1 154,-12 268,-46 365,-119 314,-236 119,-792 -229,-792l-2263 0c-31,0 -19,52 -20,84 -5,226 -147,487 -339,618 -82,56 -186,121 -286,141 -32,6 -124,-8 -144,69z"/>
   <path class="fil0" d="M-72 8694c0,204 -11,343 196,470 102,62 287,82 445,86 42,1 44,6 123,6l200 0c31,1 32,7 58,7 22,-1 27,-7 58,-7l595 -6c-25,-35 -239,-79 -370,-160 -54,-34 -137,-98 -176,-148 -71,-92 -113,-127 -166,-260 -20,-49 -40,-100 -53,-160 -11,-48 -29,-134 -30,-184 -339,-8 -610,-61 -809,193 -25,32 -71,110 -71,163z"/>
   <path class="fil0" d="M4339 1283l996 0 0 -32c-202,0 -359,-89 -493,-212l-49 -55c-131,-139 -208,-386 -208,-587l-259 0c-325,0 -629,430 -306,752 86,85 150,134 319,134z"/>
   <path class="fil0" d="M2793 6793c0,121 16,249 109,331 275,244 777,94 777,-241l0 -149c0,-198 -238,-388 -440,-388 -96,0 -175,34 -248,82 -29,19 -39,30 -66,50l-52 58c-15,17 -33,45 -43,67 -27,53 -37,113 -37,190z"/>
   <path class="fil0" d="M1468 4141c0,133 46,239 104,316 66,89 161,137 303,137 137,0 249,-16 344,-108 151,-146 181,-368 98,-541 -32,-64 -93,-134 -155,-168 -297,-163 -694,-39 -694,364z"/>
   <path class="fil0" d="M7411 3275c221,0 459,-149 459,-363l0 -168c0,-425 -790,-510 -876,-22 -18,100 -6,197 24,285 28,82 79,139 143,187 23,18 42,28 70,40 48,21 114,41 180,41z"/>
   <path class="fil0" d="M9803 5920l84 0c171,0 414,-152 414,-369l0 -136c0,-377 -542,-485 -768,-264 -193,190 -122,557 37,678 34,26 58,41 101,61 34,14 87,30 132,30z"/>
   <path class="fil0" d="M5445 843c168,0 342,-90 411,-242 146,-325 -128,-644 -347,-644l-7 0 -22 0c-143,0 -262,6 -375,152 -85,108 -136,257 -97,408 50,198 214,326 437,326z"/>
   <path class="fil0" d="M7611 9897c168,0 266,-11 371,-141 231,-285 151,-745 -397,-745 -159,0 -303,150 -355,278 -72,179 -30,326 95,467 71,80 168,141 286,141z"/>
   <path class="fil0" d="M1248 8299c0,153 13,255 131,374 256,257 758,93 763,-323 6,-421 -501,-585 -754,-331 -36,37 -65,70 -91,116 -20,36 -49,112 -49,164z"/>
  </g>
 </g>
</svg>
