<svg id="svg" version="1.1" xmlns="http://www.w3.org/2000/svg" xmlns:xlink="http://www.w3.org/1999/xlink" width="400" height="362.13921901528016" viewBox="0, 0, 400,362.13921901528016"><g id="svgg"><path id="path0" d="M108.499 242.220 C 105.500 246.624,101.338 251.158,94.907 257.026 C 87.367 263.906,86.034 265.599,84.385 270.379 C 81.331 279.236,82.923 286.070,88.746 289.099 C 95.529 292.627,102.146 289.457,106.681 280.504 C 109.218 275.496,109.569 272.767,108.882 263.404 C 108.313 255.652,108.481 248.219,109.348 242.802 C 109.533 241.644,109.664 240.679,109.638 240.656 C 109.613 240.633,109.101 241.337,108.499 242.220 M212.836 268.006 C 209.503 272.698,205.718 276.760,198.896 282.965 C 192.461 288.818,190.859 290.794,189.421 294.652 C 185.917 304.048,187.467 311.414,193.579 314.418 C 200.438 317.789,206.816 314.714,211.377 305.837 C 213.935 300.859,214.236 298.450,213.583 288.200 C 213.010 279.187,213.184 272.849,214.160 267.317 C 214.291 266.570,214.385 265.944,214.368 265.926 C 214.350 265.908,213.661 266.843,212.836 268.006 M154.512 275.899 C 150.970 281.019,147.828 284.393,139.559 291.959 C 133.632 297.380,131.971 299.508,130.578 303.456 C 127.223 312.968,128.821 319.908,135.059 322.921 C 141.991 326.269,148.576 322.822,153.055 313.497 C 155.213 309.006,155.561 305.918,154.894 297.183 C 154.303 289.442,154.514 281.118,155.433 275.889 C 155.751 274.083,155.769 274.083,154.512 275.899 M107.356 301.405 C 103.944 306.352,100.561 309.991,92.774 317.090 C 86.392 322.908,84.886 324.855,83.383 329.234 C 79.790 339.708,82.477 347.229,90.540 349.268 C 96.457 350.765,102.024 347.037,105.950 338.949 C 108.193 334.329,108.456 331.962,107.811 322.156 C 107.245 313.535,107.405 306.873,108.306 301.610 C 108.481 300.585,108.609 299.728,108.589 299.707 C 108.570 299.686,108.015 300.450,107.356 301.405 M177.832 313.030 C 174.467 317.991,170.710 322.044,162.733 329.317 C 156.462 335.036,154.968 337.034,153.410 341.794 C 150.217 351.546,152.579 358.483,159.936 360.965 C 165.683 362.903,171.167 359.943,175.276 352.683 C 178.203 347.512,178.824 343.610,178.118 334.820 C 177.398 325.863,177.619 318.110,178.761 312.267 C 178.940 311.352,179.008 311.295,177.832 313.030 " stroke="none" fill="#04ccfb" fill-rule="evenodd"></path><path id="path1" d="M150.679 43.233 C 132.361 45.035,117.955 51.357,105.008 63.274 C 90.407 76.715,81.011 97.491,80.968 116.430 L 80.962 118.711 80.507 118.611 C 75.733 117.566,65.504 117.716,58.442 118.935 C 21.458 125.321,-4.305 160.475,0.602 197.861 C 4.928 230.820,30.260 255.595,63.582 259.458 C 66.559 259.803,75.607 259.731,78.353 259.340 C 80.047 259.099,81.918 259.011,86.405 258.960 L 92.251 258.893 94.457 256.908 C 101.337 250.721,105.294 246.326,109.004 240.752 C 109.841 239.495,110.526 238.501,110.526 238.545 C 110.525 238.589,110.337 239.584,110.107 240.756 C 109.198 245.399,108.727 251.469,108.919 256.070 L 109.037 258.913 193.272 258.913 C 249.371 258.913,277.705 258.971,278.100 259.085 C 287.986 261.937,301.933 258.695,310.908 251.458 C 321.357 243.032,327.242 227.940,324.884 215.620 C 321.961 200.352,312.794 189.161,299.453 184.574 C 297.820 184.012,297.801 183.999,297.701 183.387 C 292.606 151.991,266.923 129.975,235.422 129.999 L 230.860 130.003 230.969 129.220 C 236.225 91.292,212.009 55.047,175.042 45.512 C 167.805 43.645,156.877 42.623,150.679 43.233 " stroke="none" fill="#c3c3c3" fill-rule="evenodd"></path><path id="path2" d="M226.582 0.182 C 199.573 1.802,175.801 17.566,163.435 42.057 C 162.755 43.405,162.741 43.390,164.813 43.617 C 206.525 48.180,236.775 87.322,230.969 129.220 L 230.860 130.003 235.422 129.999 C 266.923 129.975,292.606 151.991,297.701 183.387 C 297.801 183.999,297.820 184.012,299.453 184.574 C 312.247 188.973,322.210 200.732,324.607 214.261 L 324.893 215.874 338.889 215.967 C 352.580 216.058,352.927 216.069,354.754 216.445 C 364.296 218.409,376.227 215.579,384.437 209.403 C 409.083 190.863,403.426 152.141,374.532 141.604 L 372.579 140.892 372.272 138.994 C 367.402 108.869,340.674 86.560,309.928 86.957 L 305.673 87.012 305.879 85.399 C 311.879 38.480,273.617 -2.638,226.582 0.182 M80.513 117.644 C 80.147 118.525,80.170 118.676,80.673 118.676 C 80.938 118.676,80.985 118.534,80.985 117.742 C 80.985 116.599,80.950 116.592,80.513 117.644 M135.645 294.864 L 135.059 295.501 135.696 294.916 C 136.289 294.371,136.411 294.228,136.281 294.228 C 136.253 294.228,135.966 294.514,135.645 294.864 " stroke="none" fill="#747474" fill-rule="evenodd"></path><path id="path3" d="M108.962 240.807 C 105.207 246.473,100.918 251.187,93.810 257.457 C 86.855 263.592,85.046 266.066,83.475 271.598 C 80.983 280.371,82.759 286.564,88.634 289.593 C 95.699 293.235,102.897 289.616,107.439 280.135 C 109.843 275.118,110.039 272.819,109.162 259.932 C 108.648 252.373,108.921 246.823,110.105 240.767 C 110.333 239.601,110.502 238.630,110.480 238.611 C 110.459 238.591,109.776 239.580,108.962 240.807 M109.772 240.789 C 108.541 246.565,108.287 254.355,109.022 263.752 C 109.670 272.025,109.220 275.639,106.983 280.134 C 102.866 288.403,97.139 291.997,91.051 290.132 C 83.610 287.853,81.053 281.042,83.985 271.307 C 85.502 266.272,87.126 264.040,93.548 258.171 C 101.838 250.595,105.227 246.941,108.509 242.038 C 109.602 240.405,109.922 240.089,109.772 240.789 M213.925 265.498 C 210.424 270.980,206.263 275.625,198.812 282.371 C 191.864 288.661,190.150 290.872,188.575 295.586 C 185.193 305.701,187.623 313.075,195.171 315.604 C 201.747 317.807,207.883 314.145,212.062 305.524 C 214.431 300.637,214.770 297.501,214.028 287.383 C 213.406 278.909,213.728 271.705,215.012 265.324 C 215.465 263.071,215.476 263.070,213.925 265.498 M214.402 266.341 C 213.230 272.442,213.014 278.941,213.669 288.370 C 214.309 297.575,213.967 300.639,211.795 305.178 C 207.339 314.493,200.647 317.937,193.633 314.525 C 187.595 311.588,185.923 304.861,188.961 295.733 C 190.497 291.120,192.022 289.098,198.238 283.440 C 206.251 276.145,209.610 272.534,213.193 267.360 C 214.654 265.250,214.604 265.292,214.402 266.341 M154.882 274.448 C 151.125 280.092,147.792 283.782,140.238 290.658 C 133.134 297.124,131.466 299.281,129.877 304.056 C 127.041 312.575,128.273 319.150,133.328 322.465 C 138.797 326.051,145.230 325.074,149.405 320.023 C 149.825 319.515,150.260 319.003,150.373 318.884 C 150.972 318.252,152.636 315.473,153.491 313.678 C 155.770 308.890,156.020 306.559,155.349 296.350 C 154.709 286.609,155.020 279.670,156.375 273.443 C 156.556 272.609,156.685 271.908,156.661 271.884 C 156.637 271.861,155.837 273.014,154.882 274.448 M155.511 275.932 C 154.572 281.422,154.374 288.350,154.935 296.095 C 155.682 306.396,155.291 309.497,152.606 314.580 C 148.824 321.737,143.508 325.213,138.115 324.056 C 130.387 322.397,127.249 316.003,129.559 306.621 C 131.101 300.355,132.590 298.187,139.983 291.440 C 147.833 284.276,150.540 281.359,154.375 275.932 C 155.122 274.876,155.753 274.034,155.778 274.060 C 155.803 274.087,155.683 274.929,155.511 275.932 M107.964 299.618 C 104.470 304.835,100.389 309.507,95.237 314.185 C 94.625 314.741,93.406 315.845,92.529 316.638 C 86.507 322.083,84.474 324.617,83.171 328.300 C 79.673 338.191,81.210 345.482,87.462 348.654 C 94.748 352.351,101.836 348.748,106.439 339.010 C 108.457 334.739,108.925 331.680,108.510 325.467 C 108.408 323.926,108.239 321.367,108.136 319.779 C 107.633 312.056,108.060 304.533,109.331 298.716 C 109.503 297.928,109.618 297.284,109.586 297.284 C 109.554 297.284,108.824 298.334,107.964 299.618 M108.645 300.127 C 107.501 305.052,107.250 312.667,107.909 322.382 C 108.475 330.702,108.144 334.287,106.466 338.048 C 102.349 347.275,96.211 351.269,89.562 349.047 C 82.164 346.574,79.873 339.509,83.214 329.467 C 84.775 324.773,86.294 322.848,93.888 315.934 C 100.260 310.132,104.416 305.594,107.429 301.146 C 108.652 299.341,108.870 299.159,108.645 300.127 M179.579 309.387 C 179.149 310.506,175.796 315.117,172.555 319.043 C 171.426 320.412,166.447 325.275,162.615 328.753 C 155.646 335.078,153.888 337.630,152.389 343.602 C 150.335 351.780,152.221 357.786,157.725 360.596 C 165.281 364.454,172.654 360.361,177.255 349.754 C 178.915 345.925,179.124 343.324,178.522 333.956 C 177.867 323.761,178.076 318.394,179.388 311.665 C 179.775 309.677,179.861 308.650,179.579 309.387 M178.628 313.610 C 177.747 318.960,177.569 326.833,178.150 334.711 C 178.806 343.589,178.461 346.446,176.168 351.155 C 172.089 359.530,165.935 363.216,159.718 361.009 C 152.484 358.440,150.202 351.614,153.315 341.851 C 154.877 336.950,156.360 335.027,163.922 328.089 C 171.015 321.581,174.858 317.358,178.012 312.604 C 179.037 311.059,179.046 311.073,178.628 313.610 " stroke="none" fill="#74cbd4" fill-rule="evenodd"></path><path id="path4" d="M108.698 248.048 C 108.698 248.374,108.733 248.508,108.776 248.345 C 108.818 248.181,108.818 247.914,108.776 247.750 C 108.733 247.587,108.698 247.721,108.698 248.048 M102.377 249.660 C 101.965 250.081,101.665 250.424,101.712 250.424 C 101.759 250.424,102.134 250.081,102.547 249.660 C 102.959 249.240,103.258 248.896,103.212 248.896 C 103.165 248.896,102.789 249.240,102.377 249.660 M108.547 251.358 C 108.548 252.105,108.578 252.390,108.613 251.990 C 108.649 251.591,108.649 250.980,108.612 250.632 C 108.576 250.284,108.547 250.611,108.547 251.358 M97.787 254.287 L 96.859 255.263 97.835 254.335 C 98.742 253.473,98.889 253.311,98.763 253.311 C 98.737 253.311,98.297 253.750,97.787 254.287 M108.548 256.367 C 108.548 257.160,108.578 257.485,108.613 257.088 C 108.649 256.691,108.649 256.042,108.613 255.645 C 108.578 255.248,108.548 255.573,108.548 256.367 M95.493 256.409 L 94.822 257.131 95.543 256.460 C 96.214 255.835,96.343 255.688,96.214 255.688 C 96.187 255.688,95.862 256.012,95.493 256.409 M93.709 258.022 L 93.124 258.659 93.761 258.074 C 94.353 257.529,94.475 257.385,94.346 257.385 C 94.317 257.385,94.031 257.672,93.709 258.022 M91.505 260.059 L 90.577 261.036 91.553 260.108 C 92.090 259.597,92.530 259.158,92.530 259.131 C 92.530 259.005,92.367 259.152,91.505 260.059 M108.705 260.272 C 108.705 260.692,108.738 260.864,108.779 260.654 C 108.819 260.444,108.819 260.100,108.779 259.890 C 108.738 259.680,108.705 259.851,108.705 260.272 M88.702 262.861 L 88.031 263.582 88.752 262.911 C 89.423 262.287,89.552 262.139,89.423 262.139 C 89.396 262.139,89.071 262.464,88.702 262.861 M108.871 262.903 C 108.873 263.277,108.908 263.410,108.949 263.198 C 108.989 262.987,108.988 262.682,108.945 262.519 C 108.903 262.357,108.869 262.530,108.871 262.903 M109.045 265.535 C 109.045 265.955,109.078 266.127,109.118 265.917 C 109.159 265.707,109.159 265.363,109.118 265.153 C 109.078 264.943,109.045 265.115,109.045 265.535 M109.234 269.949 C 109.234 271.116,109.261 271.594,109.294 271.010 C 109.327 270.427,109.327 269.472,109.294 268.888 C 109.261 268.304,109.234 268.782,109.234 269.949 M213.452 272.666 C 213.452 272.992,213.487 273.126,213.530 272.963 C 213.572 272.799,213.572 272.532,213.530 272.368 C 213.487 272.205,213.452 272.339,213.452 272.666 M207.884 274.066 L 207.385 274.618 207.937 274.119 C 208.452 273.655,208.567 273.514,208.436 273.514 C 208.407 273.514,208.158 273.763,207.884 274.066 M213.294 275.212 C 213.294 275.726,213.325 275.936,213.364 275.679 C 213.403 275.422,213.403 275.002,213.364 274.745 C 213.325 274.489,213.294 274.699,213.294 275.212 M204.836 277.292 L 202.971 279.202 204.881 277.337 C 206.655 275.605,206.868 275.382,206.746 275.382 C 206.721 275.382,205.861 276.242,204.836 277.292 M106.739 280.393 C 106.584 280.718,106.492 280.985,106.535 280.985 C 106.651 280.985,107.166 279.945,107.089 279.868 C 107.052 279.831,106.895 280.067,106.739 280.393 M201.358 280.560 C 200.946 280.980,200.647 281.324,200.693 281.324 C 200.740 281.324,201.116 280.980,201.528 280.560 C 201.940 280.140,202.240 279.796,202.193 279.796 C 202.146 279.796,201.771 280.140,201.358 280.560 M154.708 281.664 C 154.708 281.991,154.743 282.124,154.786 281.961 C 154.829 281.798,154.829 281.530,154.786 281.367 C 154.743 281.203,154.708 281.337,154.708 281.664 M199.312 282.470 L 198.727 283.107 199.363 282.522 C 199.713 282.200,200.000 281.914,200.000 281.885 C 200.000 281.756,199.856 281.878,199.312 282.470 M148.887 282.810 L 148.302 283.447 148.939 282.861 C 149.531 282.317,149.654 282.173,149.524 282.173 C 149.496 282.173,149.209 282.460,148.887 282.810 M213.294 283.192 C 213.294 283.705,213.325 283.916,213.364 283.659 C 213.403 283.402,213.403 282.982,213.364 282.725 C 213.325 282.468,213.294 282.678,213.294 283.192 M197.530 284.083 L 196.859 284.805 197.581 284.134 C 198.252 283.509,198.380 283.362,198.252 283.362 C 198.224 283.362,197.899 283.686,197.530 284.083 M154.556 284.890 C 154.556 285.590,154.586 285.876,154.623 285.526 C 154.659 285.176,154.659 284.603,154.623 284.253 C 154.586 283.903,154.556 284.189,154.556 284.890 M146.176 285.696 L 144.737 287.182 146.222 285.742 C 147.602 284.405,147.785 284.211,147.662 284.211 C 147.636 284.211,146.968 284.879,146.176 285.696 M145.831 285.357 L 145.246 285.993 145.883 285.408 C 146.475 284.864,146.598 284.720,146.468 284.720 C 146.440 284.720,146.153 285.006,145.831 285.357 M194.733 286.715 L 193.294 288.200 194.779 286.761 C 195.596 285.969,196.265 285.301,196.265 285.275 C 196.265 285.152,196.070 285.335,194.733 286.715 M102.287 286.800 L 101.104 288.031 102.334 286.847 C 103.478 285.747,103.643 285.569,103.518 285.569 C 103.493 285.569,102.939 286.123,102.287 286.800 M213.455 286.333 C 213.457 286.706,213.492 286.839,213.533 286.628 C 213.573 286.417,213.572 286.111,213.529 285.949 C 213.487 285.786,213.453 285.959,213.455 286.333 M85.908 287.182 C 86.416 287.695,86.869 288.115,86.915 288.115 C 86.962 288.115,86.585 287.695,86.078 287.182 C 85.571 286.668,85.118 286.248,85.071 286.248 C 85.024 286.248,85.401 286.668,85.908 287.182 M102.621 287.139 L 102.122 287.691 102.674 287.192 C 102.978 286.918,103.226 286.670,103.226 286.641 C 103.226 286.509,103.086 286.625,102.621 287.139 M143.033 288.667 L 142.190 289.559 143.081 288.716 C 143.910 287.933,144.051 287.776,143.924 287.776 C 143.897 287.776,143.496 288.177,143.033 288.667 M213.625 288.879 C 213.627 289.253,213.662 289.386,213.702 289.175 C 213.743 288.963,213.741 288.658,213.699 288.495 C 213.657 288.333,213.623 288.506,213.625 288.879 M154.558 290.153 C 154.558 290.947,154.588 291.271,154.623 290.874 C 154.659 290.478,154.659 289.828,154.623 289.431 C 154.588 289.034,154.558 289.359,154.558 290.153 M140.994 290.535 L 140.323 291.256 141.044 290.585 C 141.715 289.961,141.844 289.813,141.715 289.813 C 141.688 289.813,141.363 290.138,140.994 290.535 M93.676 290.615 C 93.979 290.653,94.476 290.653,94.779 290.615 C 95.083 290.578,94.834 290.547,94.228 290.547 C 93.621 290.547,93.372 290.578,93.676 290.615 M213.798 291.681 C 213.798 292.101,213.831 292.273,213.872 292.063 C 213.912 291.853,213.912 291.509,213.872 291.299 C 213.831 291.089,213.798 291.261,213.798 291.681 M139.126 292.233 L 138.455 292.954 139.177 292.283 C 139.848 291.659,139.976 291.511,139.848 291.511 C 139.820 291.511,139.495 291.836,139.126 292.233 M136.160 295.034 L 134.380 296.859 136.205 295.079 C 137.209 294.101,138.031 293.279,138.031 293.254 C 138.031 293.132,137.813 293.339,136.160 295.034 M154.715 294.058 C 154.715 294.478,154.748 294.650,154.789 294.440 C 154.829 294.230,154.829 293.886,154.789 293.676 C 154.748 293.466,154.715 293.638,154.715 294.058 M154.882 296.689 C 154.883 297.063,154.918 297.196,154.959 296.984 C 154.999 296.773,154.998 296.468,154.955 296.305 C 154.913 296.143,154.880 296.316,154.882 296.689 M155.051 299.236 C 155.053 299.610,155.088 299.742,155.129 299.531 C 155.169 299.320,155.168 299.014,155.125 298.852 C 155.083 298.690,155.049 298.862,155.051 299.236 M155.243 303.650 C 155.243 304.771,155.271 305.207,155.304 304.620 C 155.337 304.033,155.337 303.116,155.304 302.582 C 155.270 302.049,155.243 302.530,155.243 303.650 M187.497 303.820 C 187.496 304.660,187.525 305.026,187.560 304.632 C 187.596 304.238,187.596 303.550,187.561 303.104 C 187.526 302.657,187.497 302.980,187.497 303.820 M107.521 308.998 C 107.521 309.512,107.553 309.722,107.592 309.465 C 107.631 309.208,107.631 308.788,107.592 308.531 C 107.553 308.275,107.521 308.485,107.521 308.998 M99.064 311.078 L 96.689 313.497 99.109 311.123 C 100.439 309.817,101.528 308.728,101.528 308.703 C 101.528 308.582,101.270 308.831,99.064 311.078 M190.577 312.394 C 191.037 312.861,191.452 313.243,191.498 313.243 C 191.545 313.243,191.207 312.861,190.747 312.394 C 190.287 311.927,189.873 311.545,189.826 311.545 C 189.779 311.545,190.117 311.927,190.577 312.394 M128.732 312.224 C 128.732 312.551,128.767 312.685,128.810 312.521 C 128.852 312.358,128.852 312.090,128.810 311.927 C 128.767 311.764,128.732 311.897,128.732 312.224 M107.861 312.903 C 107.861 313.417,107.893 313.627,107.931 313.370 C 107.970 313.113,107.970 312.693,107.931 312.436 C 107.893 312.180,107.861 312.390,107.861 312.903 M95.153 314.813 L 94.482 315.535 95.204 314.864 C 95.875 314.240,96.003 314.092,95.875 314.092 C 95.847 314.092,95.522 314.416,95.153 314.813 M93.200 316.596 L 92.615 317.233 93.251 316.648 C 93.844 316.103,93.966 315.959,93.836 315.959 C 93.808 315.959,93.521 316.246,93.200 316.596 M107.523 317.063 C 107.524 317.623,107.556 317.832,107.593 317.527 C 107.631 317.222,107.630 316.763,107.592 316.508 C 107.553 316.253,107.522 316.503,107.523 317.063 M91.418 318.209 L 90.747 318.930 91.469 318.259 C 91.865 317.890,92.190 317.565,92.190 317.538 C 92.190 317.409,92.042 317.538,91.418 318.209 M107.686 320.204 C 107.686 320.624,107.719 320.796,107.760 320.586 C 107.800 320.376,107.800 320.032,107.760 319.822 C 107.719 319.612,107.686 319.784,107.686 320.204 M177.802 320.119 C 177.804 320.492,177.838 320.625,177.879 320.414 C 177.920 320.203,177.918 319.897,177.876 319.735 C 177.833 319.573,177.800 319.745,177.802 320.119 M88.873 320.586 L 88.031 321.477 88.922 320.635 C 89.750 319.852,89.891 319.694,89.764 319.694 C 89.738 319.694,89.336 320.096,88.873 320.586 M169.183 323.132 L 166.469 325.891 169.228 323.177 C 170.745 321.684,171.986 320.442,171.986 320.418 C 171.986 320.297,171.705 320.569,169.183 323.132 M107.853 322.835 C 107.855 323.209,107.889 323.342,107.930 323.130 C 107.971 322.919,107.969 322.614,107.926 322.451 C 107.884 322.289,107.851 322.462,107.853 322.835 M177.651 324.873 C 177.652 325.806,177.680 326.167,177.714 325.673 C 177.749 325.180,177.749 324.416,177.714 323.976 C 177.679 323.535,177.651 323.939,177.651 324.873 M108.026 325.467 C 108.026 325.887,108.059 326.059,108.099 325.849 C 108.140 325.639,108.140 325.295,108.099 325.085 C 108.059 324.875,108.026 325.047,108.026 325.467 M165.102 327.037 L 164.431 327.759 165.153 327.088 C 165.824 326.464,165.952 326.316,165.824 326.316 C 165.796 326.316,165.471 326.640,165.102 327.037 M163.149 328.820 L 162.564 329.457 163.200 328.872 C 163.793 328.327,163.915 328.183,163.785 328.183 C 163.757 328.183,163.471 328.470,163.149 328.820 M177.810 330.051 C 177.810 330.565,177.842 330.775,177.881 330.518 C 177.919 330.261,177.919 329.841,177.881 329.584 C 177.842 329.327,177.810 329.537,177.810 330.051 M161.290 330.475 C 160.878 330.896,160.579 331.239,160.625 331.239 C 160.672 331.239,161.048 330.896,161.460 330.475 C 161.873 330.055,162.172 329.711,162.125 329.711 C 162.078 329.711,161.703 330.055,161.290 330.475 M177.972 332.852 C 177.973 333.226,178.008 333.359,178.049 333.147 C 178.089 332.936,178.088 332.631,178.045 332.468 C 178.003 332.306,177.970 332.479,177.972 332.852 M157.460 334.338 L 156.961 334.890 157.513 334.391 C 157.816 334.117,158.065 333.868,158.065 333.839 C 158.065 333.708,157.924 333.824,157.460 334.338 M178.141 335.399 C 178.143 335.772,178.178 335.905,178.219 335.694 C 178.259 335.483,178.258 335.177,178.215 335.015 C 178.173 334.853,178.139 335.025,178.141 335.399 M81.724 337.606 C 81.724 338.447,81.752 338.812,81.788 338.418 C 81.824 338.024,81.824 337.336,81.789 336.890 C 81.754 336.443,81.725 336.766,81.724 337.606 M178.319 338.370 C 178.319 338.884,178.351 339.094,178.390 338.837 C 178.429 338.580,178.429 338.160,178.390 337.903 C 178.351 337.646,178.319 337.857,178.319 338.370 M178.311 343.379 C 178.313 343.752,178.348 343.885,178.388 343.674 C 178.429 343.463,178.427 343.157,178.385 342.995 C 178.342 342.832,178.309 343.005,178.311 343.379 M101.188 345.925 C 100.776 346.346,100.477 346.689,100.524 346.689 C 100.570 346.689,100.946 346.346,101.358 345.925 C 101.771 345.505,102.070 345.161,102.023 345.161 C 101.976 345.161,101.601 345.505,101.188 345.925 M151.992 348.217 C 151.992 348.544,152.027 348.678,152.069 348.514 C 152.112 348.351,152.112 348.084,152.069 347.920 C 152.027 347.757,151.992 347.890,151.992 348.217 M92.660 349.699 C 92.965 349.736,93.424 349.736,93.679 349.697 C 93.934 349.658,93.684 349.627,93.124 349.628 C 92.564 349.629,92.355 349.661,92.660 349.699 M171.387 357.937 L 170.374 358.998 171.435 357.985 C 172.018 357.428,172.496 356.950,172.496 356.924 C 172.496 356.798,172.328 356.951,171.387 357.937 M155.093 358.234 C 155.553 358.701,155.968 359.083,156.014 359.083 C 156.061 359.083,155.723 358.701,155.263 358.234 C 154.803 357.767,154.389 357.385,154.342 357.385 C 154.295 357.385,154.634 357.767,155.093 358.234 M167.912 360.441 C 167.585 360.620,167.379 360.770,167.453 360.774 C 167.633 360.783,168.591 360.285,168.591 360.182 C 168.591 360.071,168.581 360.075,167.912 360.441 " stroke="none" fill="#6bccdc" fill-rule="evenodd"></path></g></svg>