<svg id="svg" version="1.1" xmlns="http://www.w3.org/2000/svg" xmlns:xlink="http://www.w3.org/1999/xlink" width="400" height="259.5925297113752" viewBox="0, 0, 400,259.5925297113752"><g id="svgg"><path id="path0" d="M226.486 0.107 C 203.207 1.826,183.435 12.721,169.890 31.292 C 167.619 34.406,162.741 42.603,163.008 42.857 C 163.044 42.892,164.077 43.041,165.303 43.190 C 198.127 47.169,224.704 72.445,230.474 105.171 C 231.571 111.395,231.901 121.423,231.190 126.969 C 231.030 128.215,230.900 129.323,230.900 129.430 C 230.899 129.575,231.517 129.597,233.234 129.515 C 263.726 128.054,291.449 149.979,297.135 180.051 C 297.858 183.872,297.662 183.500,299.236 184.036 C 310.972 188.036,320.347 198.026,323.761 210.172 C 324.142 211.527,324.958 215.434,324.958 215.904 C 324.958 215.934,331.141 215.959,338.699 215.959 C 350.298 215.959,352.612 215.999,353.536 216.213 C 368.931 219.784,386.205 212.106,394.566 197.976 C 407.091 176.810,396.805 148.897,373.671 141.277 L 372.555 140.909 372.173 138.695 C 366.885 108.030,339.185 85.531,308.350 86.855 L 305.579 86.973 305.676 86.398 C 307.367 76.401,306.159 62.871,302.612 52.075 C 293.222 23.500,268.476 3.598,238.285 0.340 C 236.532 0.151,228.138 -0.015,226.486 0.107 M80.447 117.572 C 80.191 118.136,80.194 118.166,80.496 118.166 C 80.747 118.166,80.815 118.040,80.815 117.572 C 80.815 117.245,80.793 116.978,80.765 116.978 C 80.738 116.978,80.595 117.245,80.447 117.572 " stroke="none" fill="#b4b4b4" fill-rule="evenodd"></path><path id="path1" d="M151.783 42.728 C 120.187 44.981,94.051 65.308,84.476 95.076 C 82.170 102.246,80.520 112.430,80.918 117.047 L 81.033 118.388 80.627 118.260 C 77.040 117.127,64.839 117.312,57.725 118.609 C 17.704 125.903,-7.963 166.323,2.212 206.027 C 9.212 233.342,31.347 253.723,59.083 258.391 C 64.663 259.330,74.223 259.529,78.862 258.803 C 81.941 258.321,276.251 258.247,278.519 258.727 C 291.960 261.572,305.789 257.119,315.086 246.952 C 333.766 226.523,325.431 193.477,299.236 184.115 L 297.708 183.569 297.568 182.744 C 292.267 151.410,266.871 129.642,235.600 129.629 L 230.708 129.626 230.800 129.117 C 231.518 125.144,231.709 115.711,231.172 110.781 C 228.114 82.727,210.775 59.305,185.044 48.472 C 175.074 44.274,161.932 42.005,151.783 42.728 " stroke="none" fill="#ebecec" fill-rule="evenodd"></path><path id="path2" d="M209.253 64.686 C 209.807 65.246,210.299 65.705,210.346 65.705 C 210.393 65.705,209.977 65.246,209.423 64.686 C 208.868 64.126,208.377 63.667,208.330 63.667 C 208.283 63.667,208.699 64.126,209.253 64.686 " stroke="none" fill="#cccccc" fill-rule="evenodd"></path><path id="path3" d="M231.449 115.110 C 231.449 115.437,231.483 115.571,231.526 115.407 C 231.569 115.244,231.569 114.977,231.526 114.813 C 231.483 114.650,231.449 114.784,231.449 115.110 M80.815 117.473 C 80.815 117.846,80.722 118.176,80.603 118.224 C 80.476 118.275,80.510 118.315,80.688 118.323 C 80.929 118.334,80.985 118.192,80.985 117.572 C 80.985 117.152,80.947 116.808,80.900 116.808 C 80.853 116.808,80.815 117.107,80.815 117.473 M231.449 121.732 C 231.449 122.059,231.483 122.192,231.526 122.029 C 231.569 121.865,231.569 121.598,231.526 121.435 C 231.483 121.271,231.449 121.405,231.449 121.732 M279.796 147.793 C 280.586 148.587,281.270 149.236,281.317 149.236 C 281.363 149.236,280.756 148.587,279.966 147.793 C 279.176 146.999,278.492 146.350,278.446 146.350 C 278.399 146.350,279.007 146.999,279.796 147.793 M313.667 193.209 C 314.222 193.769,314.713 194.228,314.760 194.228 C 314.807 194.228,314.391 193.769,313.837 193.209 C 313.283 192.649,312.791 192.190,312.744 192.190 C 312.697 192.190,313.113 192.649,313.667 193.209 " stroke="none" fill="#d3d4d4" fill-rule="evenodd"></path><path id="path4" d="M235.272 129.495 C 235.575 129.532,236.072 129.532,236.375 129.495 C 236.679 129.457,236.430 129.426,235.823 129.426 C 235.216 129.426,234.968 129.457,235.272 129.495 " stroke="none" fill="#c4cccc" fill-rule="evenodd"></path></g></svg>