<?xml version="1.0" encoding="UTF-8"?>
<!DOCTYPE svg PUBLIC "-//W3C//DTD SVG 1.1//EN" "http://www.w3.org/Graphics/SVG/1.1/DTD/svg11.dtd">
<!-- Creator: CorelDRAW X7 -->
<svg xmlns="http://www.w3.org/2000/svg" xml:space="preserve" width="119.327mm" height="110.067mm" version="1.1" style="shape-rendering:geometricPrecision; text-rendering:geometricPrecision; image-rendering:optimizeQuality; fill-rule:evenodd; clip-rule:evenodd"
viewBox="0 0 11933 11007"
 xmlns:xlink="http://www.w3.org/1999/xlink">
 <defs>
  <style type="text/css">
   <![CDATA[
    .fil0 {fill:#9D9E9E}
   ]]>
  </style>
 </defs>
 <g id="Layer_x0020_1">
  <metadata id="CorelCorpID_0Corel-Layer"/>
  <path class="fil0" d="M2168 3917c-1158,116 -2104,1053 -2085,2300 11,681 317,1211 645,1546 611,625 1105,540 1492,694 806,3243 5186,3310 6313,526 57,-140 139,-435 198,-541 905,-67 1541,-47 2332,-775 929,-855 1221,-2248 693,-3453 -136,-308 -470,-751 -647,-905 -647,-564 -1196,-800 -2343,-800 -101,-57 -197,-443 -247,-562 -918,-2185 -4117,-2766 -5721,-641 -599,792 -713,1431 -630,2611z"/>
 </g>
</svg>
