<?xml version="1.0" encoding="UTF-8"?>
<!DOCTYPE svg PUBLIC "-//W3C//DTD SVG 1.1//EN" "http://www.w3.org/Graphics/SVG/1.1/DTD/svg11.dtd">
<!-- Creator: CorelDRAW X7 -->
<svg xmlns="http://www.w3.org/2000/svg" xml:space="preserve" width="97.102mm" height="109.537mm" version="1.1" style="shape-rendering:geometricPrecision; text-rendering:geometricPrecision; image-rendering:optimizeQuality; fill-rule:evenodd; clip-rule:evenodd"
viewBox="0 0 9710 10954"
 xmlns:xlink="http://www.w3.org/1999/xlink">
 <defs>
  <style type="text/css">
   <![CDATA[
    .str0 {stroke:#557AC4;stroke-width:7.62}
    .fil0 {fill:#FEFEFE}
   ]]>
  </style>
 </defs>
 <g id="Layer_x0020_1">
  <metadata id="CorelCorpID_0Corel-Layer"/>
  <path class="fil0 str0" d="M4383 563l0 180c0,238 40,493 0,732 -22,134 -40,134 -93,134 -241,0 -481,-370 -802,-293 -324,78 -421,469 -240,695 98,122 281,198 419,277 29,17 63,31 93,47l90 48c139,69 320,162 415,287 128,169 102,414 102,649 0,73 -8,136 -32,200 -9,25 -14,37 -45,37 -235,0 -629,-384 -769,-289 -48,32 -60,141 -60,202 0,78 8,168 16,246 8,76 13,170 -5,244 -10,40 -28,102 -78,102 -164,0 -657,-302 -722,-443 -93,-202 -41,-799 -41,-1092 0,-256 -205,-469 -469,-469 -100,0 -205,54 -256,104 -191,189 -105,493 -131,776 -2,24 -9,59 -14,79 -6,27 -16,46 -21,71l-42 5c-113,0 -244,-83 -317,-131l-140 -86c-48,-29 -95,-57 -140,-87l-137 -85c-25,-16 -46,-26 -71,-42 -73,-43 -150,-81 -230,-110 -178,-65 -355,-35 -503,80 -69,53 -96,149 -141,220 -8,13 -16,21 -16,40l0 227c0,9 40,70 46,83 15,27 31,54 48,81 19,32 28,49 54,75 28,27 40,38 75,59 198,118 440,223 640,344l82 47c105,57 230,77 230,233 0,67 -383,210 -514,321 -107,92 -182,198 -182,360 0,165 93,321 243,385 129,55 261,59 389,-1 98,-45 185,-101 277,-156 47,-28 89,-52 136,-81 46,-27 86,-51 132,-78 112,-67 317,-219 431,-219 129,0 198,36 300,91l140 77c216,127 480,211 182,398 -119,75 -249,140 -361,225 -40,30 -91,62 -106,112 -33,109 261,240 352,295l276 162c25,14 74,40 103,47l0 10c-19,5 -74,46 -95,60 -33,22 -59,39 -93,61l-186 123c-17,11 -32,19 -48,29 -16,10 -31,19 -48,29 -69,38 -134,75 -209,100 -17,6 -40,13 -61,17 -195,37 -377,-99 -532,-193 -137,-81 -440,-288 -556,-330 -306,-110 -620,66 -640,377 -18,264 128,393 354,502 78,37 367,128 367,214 0,56 -86,114 -126,141l-607 337c-29,16 -57,33 -86,48l-175 97c-63,36 -104,63 -142,126 -15,25 -90,161 -90,184l0 216c0,24 93,179 115,200 79,78 245,156 375,156 245,0 560,-216 773,-345l142 -85c40,-25 323,-204 371,-115 98,177 -12,503 73,741 20,56 57,113 102,151 91,77 148,106 280,106 104,0 216,-74 269,-128 38,-38 59,-59 88,-107 99,-166 70,-321 71,-517 0,-39 -5,-61 -5,-93 -1,-34 0,-69 0,-103 0,-29 2,-70 -1,-97 -5,-47 0,-49 1,-93 2,-151 1,-315 63,-432 15,-27 26,-37 46,-57 10,-10 14,-13 25,-22 11,-8 16,-14 28,-23 21,-17 36,-29 58,-45 61,-47 486,-348 583,-246 80,84 5,574 34,713 16,73 54,86 116,86 78,0 327,-184 410,-239 87,-59 166,-127 286,-127 54,0 67,242 67,283 0,114 -9,218 -10,330 -3,221 -114,312 -277,409l-330 185c-38,21 -72,41 -110,60 -17,9 -34,19 -53,29 -20,11 -38,23 -55,33l-111 65c-75,46 -138,85 -187,157 -114,167 -114,412 34,557 149,148 332,171 522,76 29,-15 54,-28 84,-44l161 -102c27,-18 56,-33 86,-48 78,-39 100,-48 215,-48 9,40 28,58 43,142 37,205 -2,526 -2,729 0,177 -16,386 98,530 54,67 130,109 203,153 103,62 57,43 255,43l198 -112c24,-17 36,-31 56,-51l48 -56c62,-92 86,-217 85,-332 -1,-37 5,-57 5,-98 0,-39 -5,-65 -5,-98 -1,-35 3,-72 -2,-106 -10,-62 -4,-141 -12,-199l-7 -205c0,-94 5,-184 32,-267 4,-12 9,-27 14,-38 7,-17 12,-20 16,-35 69,0 111,2 168,28 77,34 142,79 213,122 138,82 240,154 418,154 245,0 412,-239 380,-493 -29,-225 -190,-315 -357,-416 -118,-71 -241,-128 -362,-195 -188,-106 -401,-185 -468,-418 -20,-69 -28,-382 -28,-482 0,-60 8,-108 21,-155 12,-49 35,-87 92,-87 170,0 463,324 629,324 51,0 81,-9 105,-59 27,-57 20,-196 14,-251 -8,-75 -1,-292 13,-367 16,-90 31,-85 110,-85 81,0 163,59 222,98 88,58 196,115 288,170 27,16 49,34 75,53 31,24 45,38 71,64 172,170 107,536 107,779l0 345c0,471 491,593 748,326 222,-230 19,-772 166,-849 63,-34 164,24 211,48 18,9 25,14 43,24l266 161c17,10 29,17 46,27l268 154c32,19 59,34 93,51 157,78 284,81 449,24 159,-55 291,-214 291,-404 0,-85 -6,-164 -39,-238 -27,-61 -67,-110 -118,-150 -12,-10 -17,-15 -28,-24 -102,-78 -215,-143 -326,-210 -138,-84 -507,-262 -588,-380 -22,-30 -21,-43 -3,-74 49,-85 157,-136 247,-181 203,-101 397,-208 397,-463 0,-248 -174,-469 -412,-469 -118,0 -243,70 -315,118 -21,15 -44,26 -68,40 -25,14 -44,27 -69,39 -26,14 -44,24 -71,38 -15,8 -18,11 -32,19 -14,8 -26,12 -38,19l-70 38c-14,7 -20,12 -33,19 -13,6 -24,11 -37,19 -90,55 -181,110 -276,158 -157,78 -262,54 -422,-14 -35,-15 -64,-27 -96,-43 -92,-46 -431,-184 -431,-285 0,-48 20,-71 55,-99 97,-80 558,-291 558,-401 0,-72 -83,-116 -137,-152 -92,-60 -466,-249 -466,-358 0,-43 32,-74 56,-93l186 -124c136,-81 342,-252 515,-252 115,0 245,83 319,130l277 170c94,56 192,107 282,167 109,71 201,131 359,131 309,0 501,-403 338,-648 -82,-123 -227,-204 -355,-268l-90 -49c-44,-26 -88,-52 -128,-83 -14,-12 -64,-64 -64,-81 0,-109 198,-193 284,-237 26,-13 55,-31 82,-46 28,-16 55,-32 85,-49 28,-18 53,-30 82,-47l249 -142c111,-66 228,-114 297,-229 18,-29 28,-55 45,-83 14,-23 46,-64 46,-89l0 -185c0,-13 -60,-123 -71,-141 -58,-105 -100,-167 -210,-213 -310,-129 -472,62 -736,192l-309 170c-127,76 -221,146 -390,146 -30,0 -28,-18 -36,-42 -102,-335 132,-777 -261,-934 -149,-60 -329,-55 -463,36 -22,15 -35,32 -53,50 -66,66 -100,175 -110,297 -10,128 1,261 1,397 -1,40 5,59 5,93 0,200 29,490 -45,661 -11,26 -20,41 -36,62 -44,58 -101,108 -164,146 -22,14 -38,24 -60,37l-197 113c-44,26 -279,170 -339,95 -102,-124 2,-560 -45,-748 -17,-66 -45,-93 -109,-93 -87,0 -303,157 -385,212 -114,77 -352,226 -352,-37l0 -438c0,-120 38,-254 126,-322l89 -66c103,-68 371,-220 479,-278l194 -110c97,-54 201,-103 270,-189 221,-272 -40,-763 -427,-684 -227,47 -481,300 -648,300l-41 0c-39,0 -57,-153 -61,-197 -5,-43 -6,-78 -6,-123 0,-50 -5,-79 -6,-129 0,-45 6,-74 6,-123 0,-41 -3,-89 0,-129l10 -253c0,-140 -2,-327 -87,-433l-65 -64c-25,-20 -49,-35 -76,-53 -27,-18 -51,-32 -78,-50 -46,-31 -65,-44 -89,-49l-167 0c-7,1 -60,36 -71,42 -26,16 -49,29 -74,45 -174,109 -236,230 -236,470z"/>
 </g>
</svg>
