<svg id="svg" version="1.1" xmlns="http://www.w3.org/2000/svg" xmlns:xlink="http://www.w3.org/1999/xlink" width="400" height="369.1001697792869" viewBox="0, 0, 400,369.1001697792869"><g id="svgg"><path id="path0" d="M150.764 42.794 C 119.501 45.069,92.832 66.655,83.881 96.929 C 82.124 102.872,80.972 110.113,80.928 115.492 C 80.906 118.193,80.787 118.807,80.404 118.188 C 80.353 118.106,79.298 117.934,78.059 117.806 C 36.266 113.470,0.167 146.025,0.094 188.115 C 0.032 224.506,26.042 254.122,62.224 258.857 C 65.740 259.317,75.736 259.300,78.778 258.828 C 80.754 258.522,82.215 258.493,100.075 258.409 L 119.250 258.319 122.525 250.085 C 129.986 231.327,129.707 231.863,132.371 231.145 C 133.515 230.837,173.971 230.770,175.573 231.074 C 179.462 231.811,179.995 235.409,176.798 239.331 C 175.349 241.108,168.603 249.538,164.864 254.244 L 161.627 258.319 219.735 258.414 C 273.447 258.501,277.934 258.530,279.032 258.794 C 292.963 262.148,309.538 255.516,318.195 243.124 C 332.890 222.089,323.476 192.786,299.237 184.115 L 297.711 183.569 297.240 180.961 C 291.846 151.070,266.114 129.641,235.600 129.629 L 230.708 129.626 230.800 129.117 C 232.198 121.384,231.570 109.350,229.286 100.071 C 220.561 64.626,187.013 40.155,150.764 42.794 " stroke="none" fill="#c3c3c3" fill-rule="evenodd"></path><path id="path1" d="M226.486 0.107 C 203.207 1.826,183.435 12.721,169.890 31.292 C 167.623 34.401,162.738 42.607,163.008 42.855 C 163.044 42.889,164.104 43.045,165.365 43.202 C 199.271 47.440,226.184 73.981,230.880 107.810 C 231.666 113.473,231.794 122.005,231.167 126.910 C 231.024 128.031,230.905 129.100,230.903 129.287 C 230.899 129.615,230.983 129.624,233.319 129.541 C 264.827 128.431,292.136 150.551,297.431 181.470 C 297.818 183.733,297.635 183.508,299.660 184.198 C 312.215 188.474,322.517 200.779,324.617 214.007 C 324.720 214.660,324.841 215.367,324.885 215.577 L 324.964 215.959 338.702 215.959 C 350.299 215.959,352.612 215.999,353.536 216.213 C 368.931 219.784,386.205 212.106,394.566 197.976 C 407.091 176.810,396.805 148.897,373.671 141.277 L 372.555 140.909 372.173 138.695 C 366.885 108.030,339.185 85.531,308.350 86.855 L 305.579 86.973 305.676 86.398 C 307.367 76.401,306.159 62.871,302.612 52.075 C 293.222 23.500,268.476 3.598,238.285 0.340 C 236.532 0.151,228.138 -0.015,226.486 0.107 M80.492 117.513 C 80.258 118.184,80.256 118.166,80.560 118.166 C 80.738 118.166,80.815 117.987,80.815 117.572 C 80.815 116.837,80.733 116.822,80.492 117.513 " stroke="none" fill="#747474" fill-rule="evenodd"></path><path id="path2" d="M133.747 230.928 C 129.858 231.312,130.285 230.599,123.004 248.896 C 120.979 253.986,119.261 258.226,119.187 258.319 C 119.112 258.413,115.910 266.221,112.072 275.672 C 104.297 294.815,104.624 293.820,105.497 295.671 C 106.725 298.275,108.610 298.489,127.504 298.179 C 133.434 298.081,138.298 298.012,138.313 298.025 C 138.375 298.076,125.108 327.622,121.911 334.550 C 113.492 352.798,109.100 363.016,108.881 364.864 C 108.584 367.370,111.124 369.465,113.789 368.913 C 115.321 368.596,119.332 363.880,132.763 346.604 C 137.089 341.041,149.628 325.212,161.885 309.844 C 166.180 304.458,172.820 296.099,176.639 291.269 C 180.459 286.439,184.098 281.878,184.726 281.135 C 188.081 277.163,187.825 273.523,184.126 272.591 C 183.207 272.360,161.472 271.817,153.142 271.817 L 151.244 271.817 152.058 270.671 C 153.077 269.237,154.929 266.842,158.739 262.032 C 160.376 259.965,163.205 256.383,165.025 254.071 C 168.165 250.087,174.651 241.966,176.798 239.332 C 179.274 236.293,179.588 233.895,177.737 232.139 C 176.556 231.019,176.394 230.993,170.289 230.945 C 156.505 230.835,134.782 230.826,133.747 230.928 " stroke="none" fill="#f3db64" fill-rule="evenodd"></path><path id="path3" d="M209.253 64.686 C 210.089 65.526,210.812 66.214,210.859 66.214 C 210.905 66.214,210.259 65.526,209.423 64.686 C 208.586 63.846,207.864 63.158,207.817 63.158 C 207.770 63.158,208.416 63.846,209.253 64.686 M231.449 114.261 C 231.449 114.588,231.483 114.722,231.526 114.559 C 231.569 114.395,231.569 114.128,231.526 113.964 C 231.483 113.801,231.449 113.935,231.449 114.261 " stroke="none" fill="#9c9c9b" fill-rule="evenodd"></path><path id="path4" d="M80.815 117.473 C 80.815 117.846,80.722 118.176,80.603 118.224 C 80.476 118.275,80.510 118.315,80.688 118.323 C 80.929 118.334,80.985 118.192,80.985 117.572 C 80.985 117.152,80.947 116.808,80.900 116.808 C 80.853 116.808,80.815 117.107,80.815 117.473 M231.449 121.732 C 231.449 122.059,231.483 122.192,231.526 122.029 C 231.569 121.865,231.569 121.598,231.526 121.435 C 231.483 121.271,231.449 121.405,231.449 121.732 M278.608 146.566 C 278.608 146.592,279.200 147.184,279.924 147.882 L 281.239 149.151 279.970 147.835 C 278.792 146.613,278.608 146.442,278.608 146.566 M313.667 193.209 C 314.127 193.676,314.542 194.058,314.588 194.058 C 314.635 194.058,314.297 193.676,313.837 193.209 C 313.377 192.742,312.963 192.360,312.916 192.360 C 312.869 192.360,313.207 192.742,313.667 193.209 " stroke="none" fill="#a4a4a4" fill-rule="evenodd"></path></g></svg>